<svg width="280" height="324" viewBox="0 0 280 324" fill="none" xmlns="http://www.w3.org/2000/svg">
<rect x="0.250275" width="279.115" height="157.788" rx="10" transform="rotate(0.0908772 0.250275 0)" fill="#00CECE"/>
<path d="M190 155.426L232.426 113L274.853 155.426L232.426 197.853L190 155.426Z" fill="#00CECE"/>
<circle cx="71.7503" cy="79.5" r="22.5" fill="#F75995" fill-opacity="0.8"/>
<path d="M161.25 79.5C161.25 91.9264 151.177 102 138.75 102C126.324 102 116.25 91.9264 116.25 79.5C116.25 67.0736 126.324 57 138.75 57C151.177 57 161.25 67.0736 161.25 79.5Z" fill="#F75995" fill-opacity="0.8"/>
<circle cx="205.75" cy="79.5" r="22.5" fill="#F75995" fill-opacity="0.8"/>
<rect x="0.213654" y="189" width="182.214" height="134.711" rx="10" transform="rotate(0.0908772 0.213654 189)" fill="#00CECE"/>
<line x1="18.021" y1="233" x2="161.021" y2="234" stroke="#850637" stroke-width="6"/>
<line x1="20.021" y1="258" x2="163.021" y2="259" stroke="#850637" stroke-width="6"/>
<line x1="20.021" y1="283" x2="120.019" y2="283.699" stroke="#850637" stroke-width="6"/>
</svg>
